<?xml version="1.0" standalone="no"?>
<!DOCTYPE svg PUBLIC "-//W3C//DTD SVG 20010904//EN"
 "http://www.w3.org/TR/2001/REC-SVG-20010904/DTD/svg10.dtd">
<svg version="1.0" xmlns="http://www.w3.org/2000/svg"
 width="700.000000pt" height="700.000000pt" viewBox="0 0 700.000000 700.000000"
 preserveAspectRatio="xMidYMid meet">
<metadata>
Created by potrace 1.14, written by Peter Selinger 2001-2017
</metadata>
<g transform="translate(0.000000,700.000000) scale(0.100000,-0.100000)"
fill="#000000" stroke="none">
<path d="M2794 6255 c-698 -187 -1288 -610 -1680 -1205 -228 -346 -370 -715
-440 -1145 -25 -154 -30 -554 -10 -729 37 -321 117 -603 252 -895 67 -144 233
-428 266 -456 32 -27 92 -34 131 -14 12 6 93 82 180 168 206 204 206 204 109
364 -532 867 -393 2005 334 2723 381 377 833 589 1381 647 l112 12 -272 277
-272 278 -91 -25z"/>
<path d="M5675 5181 c-48 -30 -323 -313 -335 -344 -18 -49 -12 -70 46 -168
167 -281 265 -555 310 -865 23 -158 23 -457 0 -609 -36 -235 -99 -440 -197
-645 -444 -926 -1439 -1424 -2454 -1229 -139 27 -369 102 -503 164 l-103 49
242 242 c187 187 246 241 258 234 21 -11 192 -57 261 -70 178 -34 426 -30 614
9 828 173 1375 970 1241 1806 -26 159 -98 382 -148 457 -29 43 -87 64 -137 49
-45 -13 -365 -332 -375 -374 -8 -31 -7 -39 25 -187 42 -198 16 -417 -69 -597
-103 -215 -253 -364 -467 -465 -115 -54 -218 -78 -354 -85 -204 -10 -339 25
-553 142 -125 69 -164 78 -215 51 -15 -8 -300 -288 -634 -623 l-608 -608 0
-47 c0 -60 19 -82 168 -196 158 -120 323 -228 462 -301 1116 -584 2472 -377
3364 515 229 229 394 460 541 759 194 393 280 742 292 1180 10 375 -45 719
-168 1058 -87 238 -313 662 -373 698 -40 24 -93 24 -131 0z"/>
<path d="M3365 5070 c-391 -45 -732 -211 -996 -487 -208 -218 -335 -453 -406
-753 -31 -131 -42 -387 -24 -534 22 -173 104 -437 162 -518 23 -32 85 -54 124
-44 27 7 334 295 367 345 23 34 23 71 -4 178 -32 128 -32 352 1 473 119 441
523 738 976 717 163 -7 262 -36 443 -129 158 -80 191 -89 240 -64 15 8 92 80
171 159 l144 145 -31 39 c-17 21 -114 121 -216 222 -179 179 -186 184 -204
168 -18 -16 -23 -17 -58 -3 -187 71 -486 109 -689 86z"/>
</g>
</svg>
